<svg xmlns="http://www.w3.org/2000/svg" width="300" height="300" viewBox="0 0 300 300">
  <defs>
    <style>
      .cls-1 {
        fill: #83d0f5;
      }

      .cls-2 {
        fill: #7a1515;
        fill-rule: evenodd;
      }
    </style>
  </defs>
  <circle id="backgr" class="cls-1" cx="150" cy="150" r="149"/>
  <path id="Vorm_1" data-name="Vorm 1" class="cls-2" d="M237.192,125.494a50.672,50.672,0,0,0-14.251,2.068l-21.048-51.32a5.305,5.305,0,0,0-4.9-3.288H172.245a5.3,5.3,0,1,0,0,10.6h21.188c0.539,1.32,2.648,6.457,5.614,13.688H110.06l-4.377-7.848,20.758-2.341a3.839,3.839,0,1,0,0-7.679H91.317a3.839,3.839,0,0,0-3.84,3.841c0,2.118-.713,8.257,5.882,7.566l0.9-.1,6.111,10.953L83.728,130.051a50.74,50.74,0,1,0,29.608,51.52H145.3v18.54h-6.628a2.649,2.649,0,1,0,0,5.3h9.28a2.643,2.643,0,0,0,2.648-2.647V180.922a0.366,0.366,0,0,0,.055-0.021c0.162-.092.305-0.214,0.457-0.317,0.11-.08.232-0.147,0.335-0.238a4.916,4.916,0,0,0,.726-0.731c0.021-.024.042-0.039,0.061-0.061l0.012-.015c0.006,0,.006-0.009.012-0.012l52.994-67.153c2.5,6.089,5.193,12.651,7.875,19.194A50.786,50.786,0,1,0,237.192,125.494Zm-130.829-13.12,32.683,58.6c-6.08,0-15.595,0-25.71,0a50.724,50.724,0,0,0-20.471-35.549C98.271,126.2,103.346,117.531,106.363,112.374Zm-3.74,58.6c-12.8,0-24.915,0-30.568,0,2.862-4.889,8.978-15.327,15.433-26.353A40.133,40.133,0,0,1,102.623,170.974ZM62.811,216.452a40.181,40.181,0,1,1,15.549-77.23L58.237,173.593a5.3,5.3,0,0,0,4.575,7.974l39.812,0A40.226,40.226,0,0,1,62.811,216.452ZM150.6,164.514V152.428h6.626a2.65,2.65,0,1,0,0-5.3h-9.274a2.649,2.649,0,0,0-2.652,2.65V160.42l-29.328-52.587h79.362Zm86.592,51.938a40.145,40.145,0,0,1-20-74.984c8.082,19.7,15.1,36.81,15.1,36.81a5.3,5.3,0,0,0,9.813-4.017L227,137.449A40.164,40.164,0,1,1,237.192,216.452Z"/>
</svg>
