<svg xmlns="http://www.w3.org/2000/svg" width="300" height="300" viewBox="0 0 300 300">
  <defs>
    <style>
      .cls-1 {
        fill: #83d0f5;
      }

      .cls-2 {
        fill: #7a1515;
        fill-rule: evenodd;
      }
    </style>
  </defs>
  <circle id="backgr" class="cls-1" cx="150" cy="150" r="149"/>
  <path id="Vorm_3" data-name="Vorm 3" class="cls-2" d="M110.283,102.709l18.927-4.871-20.55,49.247L90.272,212.027l-23.257,46,17.848,9.742,25.962-46L135.7,173.062,163.477,208.3l3.1,62.056,19.223,0.62L186,196.334,159.5,155.2l9.736-41.13,18.571,13.4,38.217,14.2,6.963-14.511-41.736-21.224-13.9-29.207-8.652-9.2L153.01,62.66l-18.932,2.708L92.426,89.608l-12.97,45.03,15.685,5.953ZM170.19,61.245a18.111,18.111,0,1,0-18.1-18.11A18.106,18.106,0,0,0,170.19,61.245Z"/>
</svg>
