<svg xmlns="http://www.w3.org/2000/svg" width="300" height="300" viewBox="0 0 300 300">
  <defs>
    <style>
      .cls-1 {
        fill: #83d0f5;
      }

      .cls-2 {
        fill: #7a1515;
        fill-rule: evenodd;
      }
    </style>
  </defs>
  <circle id="backgr" class="cls-1" cx="150" cy="150" r="149"/>
  <path id="auto" class="cls-2" d="M263.658,138.026c-2.066-4-7.724-8.561-7.724-8.561L232.581,68.627h-0.006c-4.843-11.527-19.11-17.6-25.332-17.6H92.753c-6.222,0-20.489,6.074-25.332,17.6L44.066,129.465s-5.658,4.561-7.727,8.561-4.328,7.561-4.328,34.537c0,26.3,5.413,35.658,11.9,38.9l5.123,2.818V238.7c0,7.925,1.929,10.278,9.658,10.278h17.34c7.73,0,9.657-2.353,9.657-10.278V214.277H214.3V238.7c0,7.925,1.932,10.278,9.656,10.278h17.346c7.725,0,9.657-2.353,9.657-10.278V214.277l5.122-2.818c6.491-3.238,11.9-12.595,11.9-38.9C267.989,145.587,265.731,142.026,263.658,138.026ZM77.671,185.237A15.035,15.035,0,1,1,92.73,170.2,15.069,15.069,0,0,1,77.671,185.237Zm145.224,0A15.035,15.035,0,1,1,237.959,170.2,15.068,15.068,0,0,1,222.9,185.237Zm16.758-55.772H60.342s-4.28.4-2.976-4.189c1.1-3.869,16.5-42.069,19.74-52.559,1.31-3.611,8.755-11.9,18.813-11.28H204.076c10.059-.616,17.5,7.669,18.813,11.28,3.242,10.49,18.644,48.69,19.744,52.559C243.932,129.869,239.653,129.465,239.653,129.465Z"/>
</svg>
